<svg width="1800" height="600" viewBox="0 0 1800 600" fill="none" xmlns="http://www.w3.org/2000/svg">
<path d="M665.081 396.681C665.081 397.789 664.658 398.758 663.812 399.589C662.967 400.42 661.98 400.836 660.853 400.836H650.706C649.579 400.836 648.592 400.42 647.747 399.589C646.901 398.758 646.478 397.789 646.478 396.681V328.329C646.478 323.065 645.985 318.703 644.999 315.24C644.153 311.639 642.744 308.799 640.771 306.722C638.939 304.644 636.543 303.19 633.584 302.359C630.624 301.389 627.172 300.905 623.226 300.905C618.716 300.905 614.065 301.666 609.274 303.19C604.482 304.714 599.621 306.653 594.688 309.007V396.681C594.688 397.789 594.265 398.758 593.42 399.589C592.574 400.42 591.588 400.836 590.46 400.836H580.102C578.975 400.836 577.988 400.42 577.143 399.589C576.438 398.758 576.086 397.789 576.086 396.681V290.725C576.086 289.617 576.438 288.647 577.143 287.816C577.988 286.985 578.975 286.569 580.102 286.569H590.672C591.799 286.569 592.715 286.985 593.42 287.816C594.265 288.647 594.688 289.617 594.688 290.725V294.672C600.607 291.486 606.103 289.132 611.176 287.608C616.25 285.946 621.957 285.115 628.299 285.115C641.123 285.115 650.424 288.855 656.202 296.334C662.121 303.813 665.081 314.478 665.081 328.329V396.681Z" fill="black"/>
<path d="M783.382 344.949C783.382 347.996 782.044 349.52 779.366 349.52H708.551V352.428C708.551 364.755 711.017 373.481 715.949 378.606C720.882 383.731 728.21 386.293 737.934 386.293C744.135 386.293 750.688 386.085 757.593 385.67C764.639 385.254 770.629 384.7 775.561 384.008H776.618C777.463 384.008 778.239 384.215 778.943 384.631C779.648 385.046 780 385.808 780 386.916V393.98C780 395.365 779.718 396.473 779.155 397.304C778.591 397.997 777.463 398.481 775.772 398.758C769.713 399.866 763.653 400.697 757.593 401.251C751.674 401.944 745.121 402.29 737.934 402.29C731.874 402.29 725.955 401.528 720.177 400.005C714.399 398.343 709.255 395.642 704.746 391.902C700.377 388.024 696.783 382.9 693.965 376.528C691.287 370.157 689.949 362.124 689.949 352.428V333.73C689.949 318.772 693.965 306.93 701.998 298.204C710.03 289.478 721.657 285.115 736.877 285.115C744.628 285.115 751.392 286.292 757.17 288.647C762.948 290.863 767.74 294.118 771.545 298.412C775.491 302.567 778.45 307.691 780.423 313.786C782.396 319.741 783.382 326.39 783.382 333.73V344.949ZM764.569 333.73C764.569 321.957 762.243 313.578 757.593 308.592C753.083 303.606 746.178 301.112 736.877 301.112C727.717 301.112 720.67 303.744 715.738 309.007C710.946 314.27 708.551 322.511 708.551 333.73V335.6H764.569V333.73Z" fill="black"/>
<path d="M894.026 290.101C894.026 290.655 893.956 291.14 893.815 291.556L865.277 390.448C863.868 395.157 861.472 398.343 858.09 400.005C854.708 401.528 850.762 402.29 846.252 402.29C841.743 402.29 837.797 401.528 834.415 400.005C831.032 398.343 828.637 395.157 827.227 390.448L798.69 291.556C798.549 291.14 798.478 290.655 798.478 290.101C798.478 287.747 799.606 286.569 801.861 286.569H813.487C815.319 286.569 816.658 287.885 817.503 290.517L841.813 381.099C842.518 383.592 843.152 385.254 843.716 386.085C844.279 386.778 845.125 387.124 846.252 387.124C847.239 387.124 848.014 386.778 848.578 386.085C849.282 385.254 849.987 383.592 850.692 381.099L875.001 290.517C875.847 287.885 877.186 286.569 879.018 286.569H890.644C892.899 286.569 894.026 287.747 894.026 290.101Z" fill="black"/>
<path d="M1002.2 344.949C1002.2 347.996 1000.86 349.52 998.186 349.52H927.371V352.428C927.371 364.755 929.837 373.481 934.77 378.606C939.702 383.731 947.03 386.293 956.754 386.293C962.955 386.293 969.508 386.085 976.413 385.67C983.46 385.254 989.449 384.7 994.381 384.008H995.438C996.284 384.008 997.059 384.215 997.764 384.631C998.468 385.046 998.821 385.808 998.821 386.916V393.98C998.821 395.365 998.539 396.473 997.975 397.304C997.411 397.997 996.284 398.481 994.593 398.758C988.533 399.866 982.473 400.697 976.413 401.251C970.494 401.944 963.941 402.29 956.754 402.29C950.694 402.29 944.775 401.528 938.998 400.005C933.22 398.343 928.076 395.642 923.566 391.902C919.197 388.024 915.604 382.9 912.785 376.528C910.108 370.157 908.769 362.124 908.769 352.428V333.73C908.769 318.772 912.785 306.93 920.818 298.204C928.851 289.478 940.477 285.115 955.697 285.115C963.448 285.115 970.213 286.292 975.991 288.647C981.769 290.863 986.56 294.118 990.365 298.412C994.311 302.567 997.27 307.691 999.243 313.786C1001.22 319.741 1002.2 326.39 1002.2 333.73V344.949ZM983.389 333.73C983.389 321.957 981.064 313.578 976.413 308.592C971.904 303.606 964.998 301.112 955.697 301.112C946.537 301.112 939.491 303.744 934.558 309.007C929.767 314.27 927.371 322.511 927.371 333.73V335.6H983.389V333.73Z" fill="black"/>
<path d="M1079.77 297.373C1079.77 299.727 1078.29 300.905 1075.33 300.905C1070.4 300.905 1065.61 301.597 1060.96 302.982C1056.45 304.229 1051.52 306.445 1046.16 309.63V396.681C1046.16 397.789 1045.74 398.758 1044.89 399.589C1044.05 400.42 1043.06 400.836 1041.93 400.836H1031.57C1030.45 400.836 1029.46 400.42 1028.61 399.589C1027.91 398.758 1027.56 397.789 1027.56 396.681V290.725C1027.56 289.617 1027.91 288.647 1028.61 287.816C1029.46 286.985 1030.45 286.569 1031.57 286.569H1041.51C1042.64 286.569 1043.55 286.985 1044.26 287.816C1045.1 288.647 1045.53 289.617 1045.53 290.725V295.087C1050.88 291.486 1055.95 288.924 1060.75 287.4C1065.68 285.877 1070.54 285.115 1075.33 285.115C1078.29 285.115 1079.77 286.362 1079.77 288.855V297.373Z" fill="black"/>
<path d="M1239.75 396.681C1239.75 397.789 1239.33 398.758 1238.48 399.589C1237.64 400.42 1236.65 400.836 1235.52 400.836H1225.37C1224.25 400.836 1223.26 400.42 1222.42 399.589C1221.57 398.758 1221.15 397.789 1221.15 396.681V323.135C1221.15 318.841 1220.65 315.24 1219.67 312.331C1218.68 309.423 1217.34 307.137 1215.65 305.475C1213.96 303.813 1211.92 302.636 1209.52 301.943C1207.12 301.251 1204.59 300.905 1201.91 300.905C1198.11 300.905 1194.02 301.459 1189.65 302.567C1185.42 303.675 1181.27 304.991 1177.18 306.514C1178.45 311.085 1179.08 316.486 1179.08 322.719V396.681C1179.08 397.789 1178.73 398.758 1178.02 399.589C1177.32 400.42 1176.4 400.836 1175.28 400.836H1164.07C1162.94 400.836 1162.03 400.42 1161.32 399.589C1160.76 398.758 1160.48 397.789 1160.48 396.681V322.719C1160.48 318.149 1160.13 314.478 1159.42 311.708C1158.86 308.799 1157.87 306.583 1156.46 305.06C1155.05 303.398 1153.29 302.29 1151.18 301.736C1149.2 301.182 1146.88 300.905 1144.2 300.905C1140.4 300.905 1136.24 301.736 1131.73 303.398C1127.36 304.921 1122.92 306.791 1118.41 309.007V396.681C1118.41 397.789 1118.06 398.758 1117.36 399.589C1116.65 400.42 1115.73 400.836 1114.61 400.836H1103.4C1102.28 400.836 1101.36 400.42 1100.66 399.589C1100.09 398.758 1099.81 397.789 1099.81 396.681V290.725C1099.81 289.617 1100.16 288.647 1100.87 287.816C1101.71 286.985 1102.7 286.569 1103.83 286.569H1114.4C1115.52 286.569 1116.44 286.985 1117.14 287.816C1117.99 288.647 1118.41 289.617 1118.41 290.725V294.672C1122.64 292.04 1127.36 289.755 1132.58 287.816C1137.79 285.877 1143.36 284.907 1149.27 284.907C1153.78 284.907 1157.73 285.6 1161.11 286.985C1164.64 288.232 1167.74 290.378 1170.41 293.425C1176.33 290.655 1182.25 288.578 1188.17 287.193C1194.23 285.669 1200.01 284.907 1205.5 284.907C1210.3 284.907 1214.73 285.531 1218.82 286.777C1223.05 288.024 1226.71 290.171 1229.81 293.218C1232.91 296.126 1235.31 300.074 1237 305.06C1238.83 309.908 1239.75 315.932 1239.75 323.135V396.681Z" fill="black"/>
<path d="M1289.82 264.132C1289.82 265.24 1289.39 266.209 1288.55 267.04C1287.7 267.871 1286.72 268.287 1285.59 268.287H1274.81C1273.68 268.287 1272.69 267.871 1271.85 267.04C1271 266.209 1270.58 265.24 1270.58 264.132V247.511C1270.58 246.403 1271 245.434 1271.85 244.602C1272.69 243.771 1273.68 243.356 1274.81 243.356H1285.59C1286.72 243.356 1287.7 243.771 1288.55 244.602C1289.39 245.434 1289.82 246.403 1289.82 247.511V264.132ZM1289.39 396.681C1289.39 397.789 1288.97 398.758 1288.13 399.589C1287.28 400.42 1286.29 400.836 1285.17 400.836H1275.02C1273.89 400.836 1272.91 400.42 1272.06 399.589C1271.21 398.758 1270.79 397.789 1270.79 396.681V290.725C1270.79 289.617 1271.21 288.647 1272.06 287.816C1272.91 286.985 1273.89 286.569 1275.02 286.569H1285.17C1286.29 286.569 1287.28 286.985 1288.13 287.816C1288.97 288.647 1289.39 289.617 1289.39 290.725V396.681Z" fill="black"/>
<path d="M1409.69 396.681C1409.69 397.789 1409.27 398.758 1408.42 399.589C1407.58 400.42 1406.59 400.836 1405.46 400.836H1395.31C1394.19 400.836 1393.2 400.42 1392.36 399.589C1391.51 398.758 1391.09 397.789 1391.09 396.681V328.329C1391.09 323.065 1390.59 318.703 1389.61 315.24C1388.76 311.639 1387.35 308.799 1385.38 306.722C1383.55 304.644 1381.15 303.19 1378.19 302.359C1375.23 301.389 1371.78 300.905 1367.83 300.905C1363.32 300.905 1358.67 301.666 1353.88 303.19C1349.09 304.714 1344.23 306.653 1339.3 309.007V396.681C1339.3 397.789 1338.87 398.758 1338.03 399.589C1337.18 400.42 1336.2 400.836 1335.07 400.836H1324.71C1323.58 400.836 1322.6 400.42 1321.75 399.589C1321.05 398.758 1320.69 397.789 1320.69 396.681V290.725C1320.69 289.617 1321.05 288.647 1321.75 287.816C1322.6 286.985 1323.58 286.569 1324.71 286.569H1335.28C1336.41 286.569 1337.32 286.985 1338.03 287.816C1338.87 288.647 1339.3 289.617 1339.3 290.725V294.672C1345.22 291.486 1350.71 289.132 1355.79 287.608C1360.86 285.946 1366.57 285.115 1372.91 285.115C1385.73 285.115 1395.03 288.855 1400.81 296.334C1406.73 303.813 1409.69 314.478 1409.69 328.329V396.681Z" fill="black"/>
<path d="M1527.99 344.949C1527.99 347.996 1526.65 349.52 1523.97 349.52H1453.16V352.428C1453.16 364.755 1455.63 373.481 1460.56 378.606C1465.49 383.731 1472.82 386.293 1482.54 386.293C1488.74 386.293 1495.3 386.085 1502.2 385.67C1509.25 385.254 1515.24 384.7 1520.17 384.008H1521.23C1522.07 384.008 1522.85 384.215 1523.55 384.631C1524.26 385.046 1524.61 385.808 1524.61 386.916V393.98C1524.61 395.365 1524.33 396.473 1523.76 397.304C1523.2 397.997 1522.07 398.481 1520.38 398.758C1514.32 399.866 1508.26 400.697 1502.2 401.251C1496.28 401.944 1489.73 402.29 1482.54 402.29C1476.48 402.29 1470.56 401.528 1464.79 400.005C1459.01 398.343 1453.86 395.642 1449.35 391.902C1444.99 388.024 1441.39 382.9 1438.57 376.528C1435.9 370.157 1434.56 362.124 1434.56 352.428V333.73C1434.56 318.772 1438.57 306.93 1446.61 298.204C1454.64 289.478 1466.27 285.115 1481.49 285.115C1489.24 285.115 1496 286.292 1501.78 288.647C1507.56 290.863 1512.35 294.118 1516.15 298.412C1520.1 302.567 1523.06 307.691 1525.03 313.786C1527 319.741 1527.99 326.39 1527.99 333.73V344.949ZM1509.18 333.73C1509.18 321.957 1506.85 313.578 1502.2 308.592C1497.69 303.606 1490.79 301.112 1481.49 301.112C1472.33 301.112 1465.28 303.744 1460.35 309.007C1455.56 314.27 1453.16 322.511 1453.16 333.73V335.6H1509.18V333.73Z" fill="black"/>
<path d="M1638.96 393.98C1638.96 395.365 1638.68 396.473 1638.11 397.304C1637.69 397.997 1636.49 398.481 1634.52 398.758C1627.9 400.005 1621.34 400.905 1614.86 401.459C1608.52 402.013 1602.11 402.29 1595.62 402.29C1587.73 402.29 1580.9 401.113 1575.12 398.758C1569.34 396.265 1564.55 392.803 1560.74 388.37C1556.94 383.938 1554.12 378.537 1552.29 372.165C1550.46 365.794 1549.54 358.73 1549.54 350.974V336.016C1549.54 319.672 1553.35 307.137 1560.96 298.412C1568.57 289.547 1580.12 285.115 1595.62 285.115C1598.87 285.115 1602.74 285.323 1607.25 285.738C1611.9 286.015 1616.27 286.5 1620.36 287.193V248.55C1620.36 247.442 1620.71 246.542 1621.41 245.849C1622.26 245.018 1623.25 244.602 1624.37 244.602H1635.15C1636.28 244.602 1637.2 245.018 1637.9 245.849C1638.61 246.542 1638.96 247.442 1638.96 248.55V393.98ZM1620.36 302.567C1616.83 301.874 1612.68 301.459 1607.88 301.32C1603.09 301.182 1599.01 301.112 1595.62 301.112C1590.41 301.112 1586.04 301.874 1582.52 303.398C1578.99 304.921 1576.18 307.207 1574.06 310.254C1571.95 313.162 1570.4 316.833 1569.41 321.265C1568.57 325.559 1568.14 330.475 1568.14 336.016V350.974C1568.14 362.332 1570.12 371.057 1574.06 377.152C1578.01 383.246 1585.2 386.293 1595.62 386.293C1599.29 386.293 1603.37 386.154 1607.88 385.877C1612.54 385.6 1616.69 385.323 1620.36 385.046V302.567Z" fill="black"/>
<mask id="path-2-inside-1" fill="white">
<path fill-rule="evenodd" clip-rule="evenodd" d="M274.119 402.29L161 300.171V197L274.119 299.119V402.29ZM387.239 402.29L274.12 300.171V197L387.239 299.119L498.263 197V300.171L387.239 402.29Z"/>
</mask>
<path fill-rule="evenodd" clip-rule="evenodd" d="M274.119 402.29L161 300.171V197L274.119 299.119V402.29ZM387.239 402.29L274.12 300.171V197L387.239 299.119L498.263 197V300.171L387.239 402.29Z" fill="black"/>
<path d="M161 300.171H160V300.616L160.33 300.913L161 300.171ZM274.119 402.29L273.449 403.032L275.119 404.54V402.29H274.119ZM161 197L161.67 196.258L160 194.75V197H161ZM274.119 299.119H275.119V298.674L274.789 298.377L274.119 299.119ZM274.12 300.171H273.12V300.616L273.45 300.913L274.12 300.171ZM387.239 402.29L386.569 403.032L387.245 403.643L387.916 403.026L387.239 402.29ZM274.12 197L274.79 196.258L273.12 194.75V197H274.12ZM387.239 299.119L386.569 299.861L387.245 300.472L387.916 299.855L387.239 299.119ZM498.263 197H499.263V194.722L497.586 196.264L498.263 197ZM498.263 300.171L498.94 300.907L499.263 300.61V300.171H498.263ZM160.33 300.913L273.449 403.032L274.789 401.548L161.67 299.429L160.33 300.913ZM160 197V300.171H162V197H160ZM274.789 298.377L161.67 196.258L160.33 197.742L273.449 299.861L274.789 298.377ZM275.119 402.29V299.119H273.119V402.29H275.119ZM273.45 300.913L386.569 403.032L387.909 401.548L274.79 299.429L273.45 300.913ZM273.12 197V300.171H275.12V197H273.12ZM387.909 298.377L274.79 196.258L273.45 197.742L386.569 299.861L387.909 298.377ZM497.586 196.264L386.562 298.383L387.916 299.855L498.94 197.736L497.586 196.264ZM499.263 300.171V197H497.263V300.171H499.263ZM387.916 403.026L498.94 300.907L497.586 299.435L386.562 401.554L387.916 403.026Z" fill="black" mask="url(#path-2-inside-1)"/>
</svg>
